<svg width="16" height="21" xmlns="http://www.w3.org/2000/svg" xmlns:xlink="http://www.w3.org/1999/xlink" xmlns:svgjs="http://svgjs.com/svgjs" viewBox="0 0.616 16 19.767" fill="#768c9a"><svg xmlns="http://www.w3.org/2000/svg" width="16" height="21" viewBox="0 0.974 16 19.767"><path paint-order="stroke fill markers" fill-rule="evenodd" d="M13 3.445h2c.6 0 1 .494 1 1.235v14.826c0 .74-.4 1.235-1 1.235H1c-.6 0-1-.494-1-1.235V4.68c0-.741.4-1.235 1-1.235h2V2.209c0-.741.4-1.235 1-1.235s1 .494 1 1.235v1.236h6V2.209c0-.741.4-1.235 1-1.235s1 .494 1 1.235v1.236zM2 7.15v11.12h12V7.15H2zm10 8.648h-2v-2.47h2v2.47zm-3 0H7v-2.47h2v2.47zm3-3.706h-2V9.622h2v2.47zm-3 0H7V9.622h2v2.47zm-3 3.706H4v-2.47h2v2.47z"/></svg></svg>